<svg width="184" height="384" viewBox="0 0 184 384" fill="none" xmlns="http://www.w3.org/2000/svg">
<rect width="184" height="384" fill="#1E1E1E"/>
<rect width="1440" height="1024" transform="translate(-628 -320)" fill="white"/>
<path fill-rule="evenodd" clip-rule="evenodd" d="M94 183.979C143.887 182.915 184 142.142 184 92C184 41.1898 142.81 0 92 0C41.1898 0 0 41.1898 0 92C0 142.81 41.1898 184 92 184C92.3337 184 92.6671 183.998 93 183.995L93 384H94L94 183.979Z" fill="black"/>
<circle cx="92.5" cy="92.5" r="74.5" fill="#FFE600"/>
<path fill-rule="evenodd" clip-rule="evenodd" d="M184 92C184 142.81 142.81 184 92 184C41.1898 184 0 142.81 0 92C0 41.1898 41.1898 0 92 0C142.81 0 184 41.1898 184 92ZM167 92.5C167 133.645 133.645 167 92.5 167C51.3548 167 18 133.645 18 92.5C18 51.3548 51.3548 18 92.5 18C133.645 18 167 51.3548 167 92.5ZM92.5 151C124.809 151 151 124.809 151 92.5C151 60.1913 124.809 34 92.5 34C60.1913 34 34 60.1913 34 92.5C34 124.809 60.1913 151 92.5 151ZM132 92C132 114.091 114.091 132 92 132C69.9086 132 52 114.091 52 92C52 69.9086 69.9086 52 92 52C114.091 52 132 69.9086 132 92ZM92.5 114C104.374 114 114 104.374 114 92.5C114 80.6259 104.374 71 92.5 71C80.6259 71 71 80.6259 71 92.5C71 104.374 80.6259 114 92.5 114Z" fill="#FF0000"/>
</svg>
